<?xml version="1.0" encoding="utf-8"?>
<!-- Generator: Adobe Illustrator 19.0.0, SVG Export Plug-In . SVG Version: 6.00 Build 0)  -->
<svg version="1.1" id="Layer_1" xmlns="http://www.w3.org/2000/svg" xmlns:xlink="http://www.w3.org/1999/xlink" x="0px" y="0px"
	 viewBox="-158 242 193 29" style="enable-background:new -158 242 193 29;" xml:space="preserve">
<style type="text/css">
	.st0{fill:#FFFFFF;}
	.st1{fill:#FCFCFC;}
</style>
<title>LogoRetinad</title>
<desc>Created with Sketch.</desc>
<g id="Retinad-Website">
	<g>
		<path class="st0" d="M-130.8,269.9h-11.3l-3.1-8.6l-1.4,8.6h-9.6l4.2-26.9h11.8c6.1,0,10.8,2.6,9.7,9.4c-0.6,4.1-2.5,5.8-6.3,7
			L-130.8,269.9z M-144.2,254.9h0.7c1.6,0,3.2-0.2,3.6-2.2c0.3-2.1-1.1-2.3-2.8-2.3h-0.8L-144.2,254.9z"/>
		<g>
			<path class="st0" d="M-124.2,243l-1.1,7.2h25.3l1.1-7.2C-98.9,243-124.2,243-124.2,243z"/>
			<path class="st0" d="M-127.3,262.7l-1.1,7.2l0,0h25.3l0,0l1.1-7.2H-127.3z"/>
			<path class="st0" d="M-125.8,252.9L-125.8,252.9l-1.1,7l0,0.2h25.3l0-0.2l1.1-7v0C-100.5,252.9-125.8,252.9-125.8,252.9z"/>
		</g>
		<path class="st1" d="M-66.5,252.6l-2.7,17.3h9.8l2.7-17.3C-56.7,252.6-66.5,252.6-66.5,252.6z"/>
		<polygon class="st0" points="-55.2,243 -56.3,250.2 -66.1,250.2 -66.1,250.2 -78.9,250.2 -82,269.9 -91.8,269.9 -88.7,250.2 
			-97.7,250.2 -96.6,243 -62.5,243 -62.5,243 		"/>
		<polygon class="st1" points="-24.4,243 -28.7,269.9 -38.5,269.9 -38.5,269.9 -45.5,257 -47.5,269.9 -57.3,269.9 -53,243 -53,243 
			-43.3,243 -43.2,243 -36.3,255.9 -34.2,243 		"/>
		<path class="st1" d="M11.1,243h10c9,0,15.3,4,13.8,13.8c-1.3,8-7.7,13.1-15.6,13.1H6.9L11.1,243z M18,261.9h0.6c3.2,0,6-1.5,6.5-5
			c0.6-3.8-1.3-5.4-4.9-5.4h-0.6L18,261.9z"/>
		<path class="st1" d="M0.3,243h-12.5l-14,26.9h9.8l2.1-4.1h8.5l0.6,4.1h9.8L0.3,243z M-10.6,258.6l2.8-5.3l0.8,5.3H-10.6z"/>
	</g>
</g>
</svg>
